<?xml version="1.0" encoding="UTF-8" standalone="no"?><!DOCTYPE svg PUBLIC "-//W3C//DTD SVG 1.1//EN" "http://www.w3.org/Graphics/SVG/1.1/DTD/svg11.dtd"><svg width="100%" height="100%" viewBox="0 0 109 7" version="1.1" xmlns="http://www.w3.org/2000/svg" xmlns:xlink="http://www.w3.org/1999/xlink" xml:space="preserve" style="fill-rule:evenodd;clip-rule:evenodd;stroke-linejoin:round;stroke-miterlimit:1.41421;"><g><path id="Separator" d="M108.198,3.127c0,-1.726 -1.402,-3.127 -3.127,-3.127l-6.92,0c-1.725,0 -3.127,1.401 -3.127,3.127c0,1.726 1.402,3.127 3.127,3.127l6.92,0c1.725,0 3.127,-1.401 3.127,-3.127Z" style="fill:#535d8b;"/><path id="Separator1" d="M7.462,3.127c0,-1.726 -1.401,-3.127 -3.127,-3.127l-1.208,0c-1.726,0 -3.127,1.401 -3.127,3.127c0,1.726 1.401,3.127 3.127,3.127l1.208,0c1.726,0 3.127,-1.401 3.127,-3.127Z" style="fill:#535d8b;"/><path id="Separator2" d="M90.102,3.127c0,-1.726 -1.401,-3.127 -3.127,-3.127l-71.466,0c-1.726,0 -3.127,1.401 -3.127,3.127c0,1.726 1.401,3.127 3.127,3.127l71.466,0c1.726,0 3.127,-1.401 3.127,-3.127Z" style="fill:#535d8b;"/></g></svg>